<svg width="1024" height="1024" viewBox="0 0 1024 1024" fill="none" xmlns="http://www.w3.org/2000/svg">
<rect width="1024" height="1024" fill="#0A0A0A"/>
<path d="M188 742H116V484H188V505H140V721H188V742ZM331.283 713.8C317.483 713.8 305.383 711.3 294.983 706.3C284.783 701.3 276.583 694.3 270.383 685.3C264.383 676.3 260.883 665.9 259.883 654.1L286.883 652.3C288.483 664.3 293.183 673.4 300.983 679.6C308.983 685.6 319.083 688.6 331.283 688.6C345.083 688.6 356.083 684.4 364.283 676C372.683 667.4 376.883 655.6 376.883 640.6C376.883 630.6 375.083 622 371.483 614.8C367.883 607.4 362.683 601.8 355.883 598C349.283 594 341.283 592 331.883 592C323.483 592 315.383 594.1 307.583 598.3C299.983 602.3 294.483 608.1 291.083 615.7H263.483L277.583 496H390.983V521.2H301.283L291.683 599.8L286.883 595C290.083 588.8 294.283 583.7 299.483 579.7C304.683 575.7 310.383 572.7 316.583 570.7C322.983 568.5 329.283 567.4 335.483 567.4C349.083 567.4 360.983 570.6 371.183 577C381.583 583.2 389.583 591.8 395.183 602.8C400.983 613.8 403.883 626.4 403.883 640.6C403.883 654.8 400.783 667.5 394.583 678.7C388.383 689.7 379.783 698.3 368.783 704.5C357.983 710.7 345.483 713.8 331.283 713.8ZM493.166 709V672.4H530.366V709H493.166ZM493.166 593.2V556.6H530.366V593.2H493.166ZM718.048 709V662.8H613.648V639.4L716.248 496H743.848V637.6H769.648V662.8H743.848V709H718.048ZM640.048 637.6H718.048V532L640.048 637.6ZM835.531 742V721H883.531V505H835.531V484H907.531V742H835.531Z" fill="#9ECE6A"/>
</svg>
